<svg version="1.1" id="Layer_1" xmlns="http://www.w3.org/2000/svg" xmlns:xlink="http://www.w3.org/1999/xlink" x="0px" y="0px"
	 width="100%" viewBox="0 0 1275 501" enable-background="new 0 0 1275 501" xml:space="preserve">
<path fill="#000000" opacity="1.000000" stroke="none" 
	d="
M1276.000000,160.000000 
	C1276.000000,273.952759 1276.000000,387.905548 1276.000000,502.000000 
	C1047.975098,502.000000 819.950195,502.000000 591.426208,501.577515 
	C591.294312,499.394287 591.979553,497.633972 591.981812,495.872803 
	C592.026184,461.236511 591.981995,426.600067 591.978027,391.963684 
	C591.976868,381.806488 592.029358,371.649170 592.088745,361.492126 
	C592.106995,358.380219 591.614929,355.788635 588.292419,356.030731 
	C571.627930,381.735443 555.231323,407.026947 538.662781,432.583679 
	C536.699707,429.342041 534.817139,426.045715 532.756836,422.864471 
	C524.901733,410.736176 516.908142,398.696686 509.142883,386.511475 
	C506.472168,382.320618 504.533722,377.663910 501.874146,373.464935 
	C498.383698,367.954132 494.533752,362.669373 490.768524,357.336792 
	C490.370331,356.772827 489.321136,356.083954 488.894775,356.254578 
	C488.162445,356.547638 487.325836,357.400330 487.173889,358.148254 
	C486.880432,359.593018 487.005157,361.128448 487.004974,362.626282 
	C486.999695,409.084198 487.000336,455.542084 487.000000,502.000000 
	C325.041321,502.000000 163.082642,502.000000 1.061977,502.000000 
	C1.061977,335.083923 1.061977,168.167831 1.061977,1.000000 
	C227.358170,1.000000 453.716431,1.000000 680.571594,1.416944 
	C680.134583,2.541579 679.268738,3.740438 678.256226,3.880675 
	C668.540771,5.226336 658.800598,6.393349 649.067444,7.611553 
	C648.758789,8.217564 648.450073,8.823575 648.141357,9.429585 
	C649.753601,11.291572 651.036133,13.709455 653.045715,14.901698 
	C657.444946,17.511614 662.214600,19.496563 666.829956,21.742916 
	C670.336365,23.449522 673.838135,25.165613 678.351746,27.370796 
	C673.944519,26.322357 670.477234,25.693468 667.133789,24.663046 
	C659.156555,22.204548 651.345642,19.128901 643.268860,17.089298 
	C632.213196,14.297429 620.982117,12.192764 609.809265,9.875118 
	C603.204773,8.505117 596.543335,6.116336 589.950317,6.252785 
	C576.027588,6.540926 562.010864,3.983552 548.122498,7.798255 
	C542.433411,9.360852 537.837952,12.074731 534.063599,16.219343 
	C530.371460,20.273636 528.643799,25.344357 529.037048,30.870619 
	C529.920349,43.284801 526.903320,55.879238 530.922119,68.160797 
	C532.253479,72.229538 532.703369,76.601532 534.179871,80.604904 
	C537.209229,88.818687 541.198486,96.708527 543.805847,105.040520 
	C547.357727,116.391266 555.326599,125.262329 560.053650,135.945755 
	C562.001831,140.348648 566.300598,143.652252 569.098145,147.750778 
	C574.962952,156.343002 581.087769,164.672211 588.783142,171.760300 
	C596.530884,178.896652 604.080688,186.250259 611.908875,193.295700 
	C616.231445,197.185974 620.687256,201.039062 625.544617,204.199295 
	C633.602722,209.441925 642.033081,214.112381 650.306580,219.023834 
	C650.103821,219.414825 649.901062,219.805817 649.698242,220.196823 
	C647.909973,219.137146 646.245422,217.657883 644.312683,217.087677 
	C633.839478,213.997787 625.087219,207.756210 616.344055,201.669952 
	C606.200195,194.608566 595.969421,187.500641 586.778870,179.290634 
	C578.031006,171.475983 570.094421,162.604492 562.696228,153.472488 
	C556.252747,145.518982 550.603943,136.817856 545.449951,127.955116 
	C541.020020,120.337486 537.757019,112.037918 534.033386,104.014206 
	C532.051880,99.744431 530.029480,95.481926 528.320557,91.101059 
	C526.936768,87.553520 525.860413,83.868919 524.895203,80.180351 
	C524.033875,76.888626 523.430481,73.522049 522.855652,70.164139 
	C521.522827,62.379864 520.194275,54.592869 519.045288,46.780323 
	C518.709351,44.495857 518.895935,42.117725 519.000549,39.789600 
	C519.126282,36.989754 517.853271,35.886078 515.124451,36.009964 
	C489.150787,37.189167 463.136047,34.122913 437.125977,37.699909 
	C425.767822,39.261925 414.201630,39.410103 402.891846,41.894207 
	C393.555908,43.944778 384.114014,45.515656 374.712372,47.262943 
	C371.011292,47.950787 367.218353,48.265514 363.597198,49.235344 
	C357.175842,50.955116 350.879028,53.134178 344.482788,54.954845 
	C338.559326,56.640926 332.506104,57.892105 326.632233,59.726269 
	C318.403839,62.295650 310.232117,65.073898 302.141571,68.049446 
	C294.535461,70.846817 287.087128,74.070107 279.530823,77.006828 
	C272.041534,79.917511 264.399689,82.459015 257.012329,85.603233 
	C246.016922,90.283150 235.060425,95.091888 224.319809,100.323059 
	C212.755997,105.955154 201.383682,111.996208 190.070511,118.122360 
	C179.991455,123.580215 170.028793,129.265137 160.159973,135.095612 
	C150.933609,140.546524 141.856415,146.254395 132.789963,151.970322 
	C123.415260,157.880600 114.092133,163.875534 104.841698,169.977814 
	C102.860939,171.284454 101.454353,173.450729 99.494286,174.801743 
	C95.657745,177.446182 91.471748,179.592560 87.693748,182.311066 
	C80.963966,187.153595 74.488869,192.348648 67.798470,197.247681 
	C60.226181,202.792511 52.414761,208.015762 44.928818,213.671982 
	C37.849861,219.020676 30.947891,224.619110 24.171797,230.348618 
	C17.742939,235.784500 11.410031,241.361450 5.407392,247.255676 
	C3.765758,248.867676 3.463912,251.844086 2.547223,254.194366 
	C4.623398,254.795105 6.729881,255.973404 8.768920,255.866409 
	C12.151906,255.688904 15.520824,254.806534 18.843723,254.005569 
	C27.563456,251.903717 36.277718,249.771286 44.951313,247.488266 
	C52.696774,245.449539 60.297947,242.775711 68.121773,241.144836 
	C76.790581,239.337830 85.624458,238.281509 94.414352,237.107025 
	C105.428177,235.635361 116.445267,233.529495 127.505554,233.201584 
	C150.438828,232.521667 173.413010,232.445328 196.283890,235.053497 
	C196.614288,235.091171 196.947220,235.116196 197.274002,235.174744 
	C204.361710,236.444794 211.432053,237.822968 218.541199,238.958359 
	C224.034424,239.835663 229.617249,240.187180 235.081650,241.197495 
	C238.653671,241.857956 242.104095,243.221191 245.574432,244.373672 
	C249.032318,245.522018 252.453568,246.782349 255.879486,248.024963 
	C264.732941,251.236191 273.761902,254.052109 282.361847,257.840668 
	C287.541260,260.122375 291.664948,265.317657 296.934692,266.774719 
	C309.836426,270.342072 319.655121,278.840881 329.825653,286.366699 
	C338.940613,293.111450 346.424194,302.144257 354.246979,310.522919 
	C359.584381,316.239594 365.778931,321.109619 369.438568,328.548370 
	C371.569244,332.879242 376.359100,335.901917 379.952484,339.513184 
	C380.512329,339.337006 381.072174,339.160797 381.632050,338.984589 
	C382.106567,336.912140 382.987213,334.841034 382.994202,332.766998 
	C383.086212,305.436310 383.037842,278.105225 383.091888,250.774338 
	C383.095673,248.855087 383.628326,246.936890 384.192688,245.350616 
	C417.282532,245.736588 450.094727,245.790146 483.296906,245.911560 
	C487.877289,245.377716 487.142395,249.389847 488.266724,251.292038 
	C493.762756,260.590332 498.972626,270.063507 504.077576,279.585297 
	C508.168060,287.214966 511.867950,295.053345 515.913818,302.707855 
	C520.948669,312.233368 526.060059,321.722015 531.355347,331.104156 
	C533.039124,334.087341 535.416321,336.679138 537.773132,339.849457 
	C542.065735,333.148254 545.815491,327.885925 548.937195,322.274200 
	C553.005737,314.960266 556.568481,307.365295 560.363647,299.898773 
	C563.232910,294.253784 565.982300,288.541565 569.042175,283.001251 
	C573.282898,275.322815 577.760864,267.775299 582.144653,260.175995 
	C585.061523,255.119507 587.991272,250.070480 591.192871,245.350555 
	C592.126282,245.781876 592.781982,245.966888 593.437866,245.967285 
	C625.768188,245.986725 658.098572,246.000977 690.428833,245.954391 
	C691.648010,245.952637 692.866333,245.343994 694.319336,245.130371 
	C694.745178,245.529663 694.936768,245.816742 695.075195,246.563293 
	C695.014709,303.842255 694.999634,360.661774 695.041992,417.481262 
	C695.043091,418.991333 695.666565,420.500977 696.001465,422.419647 
	C696.548584,426.509735 698.243225,425.489838 700.231323,423.938568 
	C701.990723,422.565704 703.971924,421.471283 705.694458,420.058044 
	C709.911865,416.597839 714.508484,413.443665 718.095581,409.405182 
	C724.624817,402.054443 730.221924,393.869751 736.826050,386.593994 
	C740.308411,382.757507 744.948486,379.884796 749.326111,376.967499 
	C756.629944,372.100098 763.919556,367.222931 772.643433,364.930328 
	C777.738586,363.591370 782.520996,361.098236 787.580627,359.579041 
	C792.545715,358.088257 797.682190,357.166840 802.748108,356.015930 
	C803.225464,355.907501 803.751526,356.013245 804.228699,355.904419 
	C809.843994,354.623840 815.403015,352.545654 821.075500,352.171204 
	C837.560486,351.082855 854.087830,350.598785 870.604004,350.037384 
	C877.259094,349.811188 883.930603,350.113495 890.590576,349.976868 
	C905.353333,349.673981 920.113525,349.245514 936.266479,348.832672 
	C934.010254,342.826630 932.654297,338.407898 930.716553,334.261078 
	C928.227722,328.935059 925.139343,323.892120 922.553955,318.607513 
	C919.984497,313.355438 923.332825,305.209534 928.779419,303.075195 
	C935.450500,300.461029 942.119934,297.835419 948.856628,295.398895 
	C952.525696,294.071899 956.272766,292.812012 960.091858,292.084808 
	C965.292236,291.094543 970.612427,290.751221 975.847656,289.919220 
	C979.129822,289.397675 982.370300,288.565491 985.593750,287.734283 
	C990.143250,286.561096 994.627869,285.124664 999.197998,284.045868 
	C1005.715515,282.507477 1012.285706,281.192749 1018.830688,279.770081 
	C1018.971313,279.739502 1019.061584,279.500610 1019.205139,279.457092 
	C1024.091431,277.975494 1028.910645,276.168549 1033.889893,275.127045 
	C1039.101318,274.036957 1044.484375,273.795807 1049.759521,272.972931 
	C1053.857178,272.333710 1057.906250,271.379578 1061.973633,270.549744 
	C1067.767700,269.367615 1073.545044,268.096283 1079.356079,267.004578 
	C1083.923828,266.146454 1088.541138,265.556488 1093.118530,264.745819 
	C1096.592651,264.130585 1100.917725,264.418091 1103.316040,262.433167 
	C1108.511841,258.132782 1114.831421,260.916138 1120.350098,258.305054 
	C1124.845947,256.177887 1130.608032,256.825500 1135.763672,255.970703 
	C1142.890747,254.789062 1149.976196,253.356613 1157.077148,252.018936 
	C1158.044434,251.836716 1159.005615,251.609741 1159.956787,251.355438 
	C1166.655518,249.564651 1173.335571,247.702286 1180.051880,245.980286 
	C1185.561768,244.567535 1191.126343,243.368393 1196.643066,241.981003 
	C1203.015747,240.378342 1209.464355,238.980652 1215.690674,236.921631 
	C1221.355835,235.048172 1226.834839,232.552231 1232.252686,230.023941 
	C1234.043823,229.188049 1235.183716,226.961319 1236.973633,226.117386 
	C1245.668091,222.017822 1250.391968,214.125443 1254.806152,206.466690 
	C1259.798828,197.803955 1263.440552,188.347321 1267.457764,179.143417 
	C1269.863037,173.632629 1271.822510,167.928513 1274.084473,162.352737 
	C1274.447998,161.456924 1275.348022,160.778748 1276.000000,160.000000 
z"/>
<path fill="#880000" opacity="1.000000" stroke="none" 
	d="
M695.128296,246.103851 
	C694.936768,245.816742 694.745178,245.529663 693.845154,245.127747 
	C659.062927,245.014618 624.989075,245.016357 590.915283,245.018097 
	C587.991272,250.070480 585.061523,255.119507 582.144653,260.175995 
	C577.760864,267.775299 573.282898,275.322815 569.042175,283.001251 
	C565.982300,288.541565 563.232910,294.253784 560.363647,299.898773 
	C556.568481,307.365295 553.005737,314.960266 548.937195,322.274200 
	C545.815491,327.885925 542.065735,333.148254 537.773132,339.849457 
	C535.416321,336.679138 533.039124,334.087341 531.355347,331.104156 
	C526.060059,321.722015 520.948669,312.233368 515.913818,302.707855 
	C511.867950,295.053345 508.168060,287.214966 504.077576,279.585297 
	C498.972626,270.063507 493.762756,260.590332 488.266724,251.292038 
	C487.142395,249.389847 487.877289,245.377716 482.911865,245.787903 
	C479.660339,245.398346 477.184021,245.030869 474.707336,245.028061 
	C444.443298,244.993698 414.179138,245.012894 383.915039,245.018204 
	C383.628326,246.936890 383.095673,248.855087 383.091888,250.774338 
	C383.037842,278.105225 383.086212,305.436310 382.994202,332.766998 
	C382.987213,334.841034 382.106567,336.912140 381.632050,338.984589 
	C381.072174,339.160797 380.512329,339.337006 379.952484,339.513184 
	C376.359100,335.901917 371.569244,332.879242 369.438568,328.548370 
	C365.778931,321.109619 359.584381,316.239594 354.246979,310.522919 
	C346.424194,302.144257 338.940613,293.111450 329.825653,286.366699 
	C319.655121,278.840881 309.836426,270.342072 296.934692,266.774719 
	C291.664948,265.317657 287.541260,260.122375 282.361847,257.840668 
	C273.761902,254.052109 264.732941,251.236191 255.879486,248.024963 
	C252.453568,246.782349 249.032318,245.522018 245.574432,244.373672 
	C242.104095,243.221191 238.653671,241.857956 235.081650,241.197495 
	C229.617249,240.187180 224.034424,239.835663 218.541199,238.958359 
	C211.432053,237.822968 204.361710,236.444794 197.274002,235.174744 
	C196.947220,235.116196 196.614288,235.091171 196.283890,235.053497 
	C173.413010,232.445328 150.438828,232.521667 127.505554,233.201584 
	C116.445267,233.529495 105.428177,235.635361 94.414352,237.107025 
	C85.624458,238.281509 76.790581,239.337830 68.121773,241.144836 
	C60.297947,242.775711 52.696774,245.449539 44.951313,247.488266 
	C36.277718,249.771286 27.563456,251.903717 18.843723,254.005569 
	C15.520824,254.806534 12.151906,255.688904 8.768920,255.866409 
	C6.729881,255.973404 4.623398,254.795105 2.547223,254.194366 
	C3.463912,251.844086 3.765758,248.867676 5.407392,247.255676 
	C11.410031,241.361450 17.742939,235.784500 24.171797,230.348618 
	C30.947891,224.619110 37.849861,219.020676 44.928818,213.671982 
	C52.414761,208.015762 60.226181,202.792511 67.798470,197.247681 
	C74.488869,192.348648 80.963966,187.153595 87.693748,182.311066 
	C91.471748,179.592560 95.657745,177.446182 99.494286,174.801743 
	C101.454353,173.450729 102.860939,171.284454 104.841698,169.977814 
	C114.092133,163.875534 123.415260,157.880600 132.789963,151.970322 
	C141.856415,146.254395 150.933609,140.546524 160.159973,135.095612 
	C170.028793,129.265137 179.991455,123.580215 190.070511,118.122360 
	C201.383682,111.996208 212.755997,105.955154 224.319809,100.323059 
	C235.060425,95.091888 246.016922,90.283150 257.012329,85.603233 
	C264.399689,82.459015 272.041534,79.917511 279.530823,77.006828 
	C287.087128,74.070107 294.535461,70.846817 302.141571,68.049446 
	C310.232117,65.073898 318.403839,62.295650 326.632233,59.726269 
	C332.506104,57.892105 338.559326,56.640926 344.482788,54.954845 
	C350.879028,53.134178 357.175842,50.955116 363.597198,49.235344 
	C367.218353,48.265514 371.011292,47.950787 374.712372,47.262943 
	C384.114014,45.515656 393.555908,43.944778 402.891846,41.894207 
	C414.201630,39.410103 425.767822,39.261925 437.125977,37.699909 
	C463.136047,34.122913 489.150787,37.189167 515.124451,36.009964 
	C517.853271,35.886078 519.126282,36.989754 519.000549,39.789600 
	C518.895935,42.117725 518.709351,44.495857 519.045288,46.780323 
	C520.194275,54.592869 521.522827,62.379864 522.855652,70.164139 
	C523.430481,73.522049 524.033875,76.888626 524.895203,80.180351 
	C525.860413,83.868919 526.936768,87.553520 528.320557,91.101059 
	C530.029480,95.481926 532.051880,99.744431 534.033386,104.014206 
	C537.757019,112.037918 541.020020,120.337486 545.449951,127.955116 
	C550.603943,136.817856 556.252747,145.518982 562.696228,153.472488 
	C570.094421,162.604492 578.031006,171.475983 586.778870,179.290634 
	C595.969421,187.500641 606.200195,194.608566 616.344055,201.669952 
	C625.087219,207.756210 633.839478,213.997787 644.312683,217.087677 
	C646.245422,217.657883 647.909973,219.137146 649.698242,220.196823 
	C649.901062,219.805817 650.103821,219.414825 650.306580,219.023834 
	C642.033081,214.112381 633.602722,209.441925 625.544617,204.199295 
	C620.687256,201.039062 616.231445,197.185974 611.908875,193.295700 
	C604.080688,186.250259 596.530884,178.896652 588.783142,171.760300 
	C581.087769,164.672211 574.962952,156.343002 569.098145,147.750778 
	C566.300598,143.652252 562.001831,140.348648 560.053650,135.945755 
	C555.326599,125.262329 547.357727,116.391266 543.805847,105.040520 
	C541.198486,96.708527 537.209229,88.818687 534.179871,80.604904 
	C532.703369,76.601532 532.253479,72.229538 530.922119,68.160797 
	C526.903320,55.879238 529.920349,43.284801 529.037048,30.870619 
	C528.643799,25.344357 530.371460,20.273636 534.063599,16.219343 
	C537.837952,12.074731 542.433411,9.360852 548.122498,7.798255 
	C562.010864,3.983552 576.027588,6.540926 589.950317,6.252785 
	C596.543335,6.116336 603.204773,8.505117 609.809265,9.875118 
	C620.982117,12.192764 632.213196,14.297429 643.268860,17.089298 
	C651.345642,19.128901 659.156555,22.204548 667.133789,24.663046 
	C670.477234,25.693468 673.944519,26.322357 678.351746,27.370796 
	C673.838135,25.165613 670.336365,23.449522 666.829956,21.742916 
	C662.214600,19.496563 657.444946,17.511614 653.045715,14.901698 
	C651.036133,13.709455 649.753601,11.291572 648.141357,9.429585 
	C648.450073,8.823575 648.758789,8.217564 649.067444,7.611553 
	C658.800598,6.393349 668.540771,5.226336 678.256226,3.880675 
	C679.268738,3.740438 680.134583,2.541579 681.034241,1.416944 
	C708.354248,1.000000 735.708435,1.000000 763.469849,1.416703 
	C765.149048,2.551258 766.362061,3.739227 767.702942,3.907460 
	C774.326294,4.738428 780.977478,5.370856 787.630371,5.938281 
	C796.476257,6.692753 805.333679,7.311309 814.184570,8.008926 
	C822.535095,8.667106 830.883789,9.349948 839.232544,10.030555 
	C839.723389,10.070572 840.214294,10.160453 840.694458,10.272721 
	C847.410950,11.842924 854.073608,13.716425 860.856018,14.910261 
	C867.046814,15.999954 873.392090,16.179897 879.623413,17.079102 
	C887.400574,18.201382 895.130493,19.651011 902.881714,20.953629 
	C903.368469,21.035418 903.873535,21.023193 904.353149,21.130295 
	C910.115723,22.416979 915.868591,23.747807 921.637512,25.005138 
	C925.771240,25.906092 929.944763,26.629177 934.066345,27.580145 
	C943.166565,29.679838 952.224304,31.967213 961.341675,33.987324 
	C965.627991,34.937035 970.061157,35.232117 974.338074,36.214283 
	C978.750671,37.227592 983.022461,38.839577 987.413696,39.963959 
	C992.933350,41.377274 998.537659,42.460159 1004.057922,43.871254 
	C1010.249817,45.454002 1016.349731,47.406376 1022.561401,48.899147 
	C1029.018311,50.450855 1035.633911,51.370312 1042.046753,53.069363 
	C1049.265747,54.981972 1056.314819,57.526653 1063.477173,59.664494 
	C1069.126709,61.350826 1074.853638,62.776817 1080.514648,64.426819 
	C1088.963257,66.889305 1097.393921,69.414101 1105.813232,71.975174 
	C1112.084106,73.882721 1118.327637,75.880280 1124.578003,77.855118 
	C1129.975952,79.560661 1135.382202,81.242966 1140.755615,83.023392 
	C1146.122559,84.801689 1151.506836,86.549881 1156.782959,88.573318 
	C1160.880859,90.144859 1164.722534,92.408798 1168.856079,93.857605 
	C1178.951172,97.396027 1189.283691,100.289810 1199.264771,104.111160 
	C1207.593018,107.299675 1215.608765,111.330658 1223.666016,115.190994 
	C1228.875000,117.686714 1235.331421,118.057304 1238.758667,123.678772 
	C1239.363892,124.671844 1240.201660,126.086220 1239.907471,126.962006 
	C1238.903198,129.952881 1237.343018,132.751968 1236.198730,135.703262 
	C1235.669678,137.067642 1235.612061,138.614807 1235.340576,140.079086 
	C1236.667603,139.376984 1236.649170,138.398331 1236.990479,137.567276 
	C1238.626709,133.581009 1238.729980,128.185349 1244.034790,127.110710 
	C1247.882080,126.331322 1252.294189,125.879982 1255.923950,127.000710 
	C1263.454834,129.325974 1270.888306,132.374878 1276.000000,139.000000 
	C1276.000000,145.687637 1276.000000,152.375290 1276.000000,159.531464 
	C1275.348022,160.778748 1274.447998,161.456924 1274.084473,162.352737 
	C1271.822510,167.928513 1269.863037,173.632629 1267.457764,179.143417 
	C1263.440552,188.347321 1259.798828,197.803955 1254.806152,206.466690 
	C1250.391968,214.125443 1245.668091,222.017822 1236.973633,226.117386 
	C1235.183716,226.961319 1234.043823,229.188049 1232.252686,230.023941 
	C1226.834839,232.552231 1221.355835,235.048172 1215.690674,236.921631 
	C1209.464355,238.980652 1203.015747,240.378342 1196.643066,241.981003 
	C1191.126343,243.368393 1185.561768,244.567535 1180.051880,245.980286 
	C1173.335571,247.702286 1166.655518,249.564651 1159.956787,251.355438 
	C1159.005615,251.609741 1158.044434,251.836716 1157.077148,252.018936 
	C1149.976196,253.356613 1142.890747,254.789062 1135.763672,255.970703 
	C1130.608032,256.825500 1124.845947,256.177887 1120.350098,258.305054 
	C1114.831421,260.916138 1108.511841,258.132782 1103.316040,262.433167 
	C1100.917725,264.418091 1096.592651,264.130585 1093.118530,264.745819 
	C1088.541138,265.556488 1083.923828,266.146454 1079.356079,267.004578 
	C1073.545044,268.096283 1067.767700,269.367615 1061.973633,270.549744 
	C1057.906250,271.379578 1053.857178,272.333710 1049.759521,272.972931 
	C1044.484375,273.795807 1039.101318,274.036957 1033.889893,275.127045 
	C1028.910645,276.168549 1024.091431,277.975494 1019.205139,279.457092 
	C1019.061584,279.500610 1018.971313,279.739502 1018.830688,279.770081 
	C1012.285706,281.192749 1005.715515,282.507477 999.197998,284.045868 
	C994.627869,285.124664 990.143250,286.561096 985.593750,287.734283 
	C982.370300,288.565491 979.129822,289.397675 975.847656,289.919220 
	C970.612427,290.751221 965.292236,291.094543 960.091858,292.084808 
	C956.272766,292.812012 952.525696,294.071899 948.856628,295.398895 
	C942.119934,297.835419 935.450500,300.461029 928.779419,303.075195 
	C923.332825,305.209534 919.984497,313.355438 922.553955,318.607513 
	C925.139343,323.892120 928.227722,328.935059 930.716553,334.261078 
	C932.654297,338.407898 934.010254,342.826630 936.266479,348.832672 
	C920.113525,349.245514 905.353333,349.673981 890.590576,349.976868 
	C883.930603,350.113495 877.259094,349.811188 870.604004,350.037384 
	C854.087830,350.598785 837.560486,351.082855 821.075500,352.171204 
	C815.403015,352.545654 809.843994,354.623840 804.228699,355.904419 
	C803.751526,356.013245 803.225464,355.907501 802.748108,356.015930 
	C797.682190,357.166840 792.545715,358.088257 787.580627,359.579041 
	C782.520996,361.098236 777.738586,363.591370 772.643433,364.930328 
	C763.919556,367.222931 756.629944,372.100098 749.326111,376.967499 
	C744.948486,379.884796 740.308411,382.757507 736.826050,386.593994 
	C730.221924,393.869751 724.624817,402.054443 718.095581,409.405182 
	C714.508484,413.443665 709.911865,416.597839 705.694458,420.058044 
	C703.971924,421.471283 701.990723,422.565704 700.231323,423.938568 
	C698.243225,425.489838 696.548584,426.509735 696.001465,421.950317 
	C695.998962,365.008453 696.008179,308.944794 695.960510,252.881134 
	C695.958618,250.621811 695.417969,248.362946 695.128296,246.103851 
M664.164185,179.637192 
	C664.462769,179.936615 664.761414,180.236038 665.059937,180.535461 
	C665.201721,180.165359 665.343506,179.795273 665.485352,179.425186 
	C664.932495,179.357010 664.379639,179.288849 664.165039,178.522079 
	C659.213562,171.643204 654.034790,164.910828 649.448242,157.796692 
	C648.061462,155.645798 648.315552,152.437042 647.818054,149.712830 
	C650.265503,149.890320 652.717041,150.024734 655.158936,150.260132 
	C656.846497,150.422836 658.520752,150.725052 660.912659,151.066513 
	C653.362183,138.586716 641.817261,130.171112 635.298889,117.693199 
	C647.497314,114.674179 656.093262,121.605057 665.970398,124.935509 
	C665.414124,122.968674 664.453796,121.435593 663.411316,119.960609 
	C660.654419,116.060135 657.525696,112.374603 655.191223,108.238762 
	C653.355835,104.987076 655.694214,101.340401 659.208679,102.199783 
	C664.580994,103.513443 669.640686,106.105186 675.265259,108.509193 
	C676.067505,108.754097 676.869751,108.999001 677.671997,109.243904 
	C677.724365,108.967056 677.776672,108.690201 677.829041,108.413345 
	C676.814697,108.348930 675.800415,108.284515 675.087830,107.522934 
	C673.742249,105.693283 672.727844,103.423691 670.989868,102.115166 
	C665.431152,97.929909 659.524048,94.210899 653.896545,90.112686 
	C640.186890,80.128746 625.028381,72.776390 609.558716,66.135818 
	C601.657532,62.744102 593.186279,60.683475 584.981018,57.995792 
	C579.609741,56.236385 574.253235,54.431454 569.149048,52.733067 
	C565.223572,61.134422 567.025391,68.195518 569.894470,74.925346 
	C572.536926,81.123886 576.691956,86.735039 578.888611,93.054108 
	C583.342773,105.867111 593.086060,115.003311 600.762939,125.451523 
	C607.015381,133.961014 615.636475,140.741776 623.287354,148.206985 
	C626.992004,151.821686 630.773682,155.373352 634.711792,158.728989 
	C640.115479,163.333435 645.512695,167.987259 651.274170,172.115387 
	C655.161377,174.900620 659.672241,176.815491 664.164185,179.637192 
M991.671021,109.698112 
	C986.410828,108.791656 981.127502,107.999863 975.897217,106.945061 
	C971.089050,105.975365 966.311218,104.822830 961.569885,103.563286 
	C957.642029,102.519859 953.855835,100.826759 949.882812,100.097046 
	C944.133240,99.041031 938.262573,98.661072 932.460876,97.866470 
	C928.114990,97.271248 923.771057,96.602943 919.471863,95.740059 
	C913.851990,94.612122 908.323792,92.959076 902.670715,92.083611 
	C896.138550,91.071999 889.513062,90.664917 882.929688,89.979591 
	C882.444153,89.929054 881.978088,89.704895 881.492432,89.639885 
	C875.827087,88.881439 870.159607,88.138039 864.492737,87.390671 
	C866.907410,89.017036 869.351379,89.739326 871.741821,90.608788 
	C874.663269,91.671402 877.505371,93.667450 880.444336,93.792732 
	C884.451782,93.963562 886.669495,96.524086 887.860840,99.074120 
	C893.998291,112.210342 905.805969,117.164291 918.404419,120.878197 
	C925.070374,122.843300 931.960266,124.806976 938.831726,125.159225 
	C953.234741,125.897537 967.696899,125.811584 982.125244,125.546448 
	C987.110413,125.454834 992.107544,122.900116 997.028137,123.113083 
	C1005.123291,123.463463 1012.536926,122.316368 1019.895813,117.669052 
	C1018.430969,116.712830 1017.256470,115.426689 1015.868591,115.126106 
	C1008.002197,113.422432 1000.084778,111.954674 991.671021,109.698112 
M878.932983,280.581909 
	C873.074890,286.588684 876.320374,293.202759 878.075439,299.429138 
	C879.581909,304.773529 882.151123,309.818329 884.349792,315.240784 
	C883.874756,307.798187 883.047363,300.796448 883.146362,293.807831 
	C883.194031,290.438721 884.570801,286.892181 886.082031,283.783997 
	C888.617676,278.568787 892.393127,274.491638 897.875183,271.833557 
	C908.463318,266.699646 918.800964,261.051178 929.284363,255.698212 
	C932.533508,254.039185 935.918213,252.645691 939.240845,251.130630 
	C916.393005,254.924438 896.836853,265.348724 878.932983,280.581909 
M667.642395,127.020935 
	C667.483887,126.825920 667.325439,126.630898 667.166931,126.435883 
	C667.204773,126.673660 667.242615,126.911438 667.642395,127.020935 
z"/>
<path fill="#000000" opacity="1.000000" stroke="none" 
	d="
M1276.000000,138.531342 
	C1270.888306,132.374878 1263.454834,129.325974 1255.923950,127.000710 
	C1252.294189,125.879982 1247.882080,126.331322 1244.034790,127.110710 
	C1238.729980,128.185349 1238.626709,133.581009 1236.990479,137.567276 
	C1236.649170,138.398331 1236.667603,139.376984 1235.340576,140.079086 
	C1235.612061,138.614807 1235.669678,137.067642 1236.198730,135.703262 
	C1237.343018,132.751968 1238.903198,129.952881 1239.907471,126.962006 
	C1240.201660,126.086220 1239.363892,124.671844 1238.758667,123.678772 
	C1235.331421,118.057304 1228.875000,117.686714 1223.666016,115.190994 
	C1215.608765,111.330658 1207.593018,107.299675 1199.264771,104.111160 
	C1189.283691,100.289810 1178.951172,97.396027 1168.856079,93.857605 
	C1164.722534,92.408798 1160.880859,90.144859 1156.782959,88.573318 
	C1151.506836,86.549881 1146.122559,84.801689 1140.755615,83.023392 
	C1135.382202,81.242966 1129.975952,79.560661 1124.578003,77.855118 
	C1118.327637,75.880280 1112.084106,73.882721 1105.813232,71.975174 
	C1097.393921,69.414101 1088.963257,66.889305 1080.514648,64.426819 
	C1074.853638,62.776817 1069.126709,61.350826 1063.477173,59.664494 
	C1056.314819,57.526653 1049.265747,54.981972 1042.046753,53.069363 
	C1035.633911,51.370312 1029.018311,50.450855 1022.561401,48.899147 
	C1016.349731,47.406376 1010.249817,45.454002 1004.057922,43.871254 
	C998.537659,42.460159 992.933350,41.377274 987.413696,39.963959 
	C983.022461,38.839577 978.750671,37.227592 974.338074,36.214283 
	C970.061157,35.232117 965.627991,34.937035 961.341675,33.987324 
	C952.224304,31.967213 943.166565,29.679838 934.066345,27.580145 
	C929.944763,26.629177 925.771240,25.906092 921.637512,25.005138 
	C915.868591,23.747807 910.115723,22.416979 904.353149,21.130295 
	C903.873535,21.023193 903.368469,21.035418 902.881714,20.953629 
	C895.130493,19.651011 887.400574,18.201382 879.623413,17.079102 
	C873.392090,16.179897 867.046814,15.999954 860.856018,14.910261 
	C854.073608,13.716425 847.410950,11.842924 840.694458,10.272721 
	C840.214294,10.160453 839.723389,10.070572 839.232544,10.030555 
	C830.883789,9.349948 822.535095,8.667106 814.184570,8.008926 
	C805.333679,7.311309 796.476257,6.692753 787.630371,5.938281 
	C780.977478,5.370856 774.326294,4.738428 767.702942,3.907460 
	C766.362061,3.739227 765.149048,2.551258 763.938538,1.416703 
	C934.551758,1.000000 1105.103516,1.000000 1276.000000,1.000000 
	C1276.000000,46.686981 1276.000000,92.374832 1276.000000,138.531342 
z"/>
<path fill="#880000" opacity="1.000000" stroke="none" 
	d="
M487.333313,502.000000 
	C487.000336,455.542084 486.999695,409.084198 487.004974,362.626282 
	C487.005157,361.128448 486.880432,359.593018 487.173889,358.148254 
	C487.325836,357.400330 488.162445,356.547638 488.894775,356.254578 
	C489.321136,356.083954 490.370331,356.772827 490.768524,357.336792 
	C494.533752,362.669373 498.383698,367.954132 501.874146,373.464935 
	C504.533722,377.663910 506.472168,382.320618 509.142883,386.511475 
	C516.908142,398.696686 524.901733,410.736176 532.756836,422.864471 
	C534.817139,426.045715 536.699707,429.342041 538.662781,432.583679 
	C555.231323,407.026947 571.627930,381.735443 588.292419,356.030731 
	C591.614929,355.788635 592.106995,358.380219 592.088745,361.492126 
	C592.029358,371.649170 591.976868,381.806488 591.978027,391.963684 
	C591.981995,426.600067 592.026184,461.236511 591.981812,495.872803 
	C591.979553,497.633972 591.294312,499.394287 590.963562,501.577515 
	C589.933289,502.000000 588.866638,502.000000 587.016602,501.847839 
	C584.257996,501.466644 582.282959,501.041260 580.307251,501.038177 
	C552.160522,500.994415 524.013733,500.984772 495.867126,501.050232 
	C493.577362,501.055573 491.289001,501.669067 489.000000,502.000000 
	C488.555542,502.000000 488.111115,502.000000 487.333313,502.000000 
z"/>
<path fill="#AA0000" opacity="1.000000" stroke="none" 
	d="
M489.468658,502.000000 
	C491.289001,501.669067 493.577362,501.055573 495.867126,501.050232 
	C524.013733,500.984772 552.160522,500.994415 580.307251,501.038177 
	C582.282959,501.041260 584.257996,501.466644 586.616699,501.847839 
	C554.645752,502.000000 522.291565,502.000000 489.468658,502.000000 
z"/>
<path fill="#FF0000" opacity="1.000000" stroke="none" 
	d="
M695.075195,246.563293 
	C695.417969,248.362946 695.958618,250.621811 695.960510,252.881134 
	C696.008179,308.944794 695.998962,365.008453 695.999817,421.541504 
	C695.666565,420.500977 695.043091,418.991333 695.041992,417.481262 
	C694.999634,360.661774 695.014709,303.842255 695.075195,246.563293 
z"/>
<path fill="#AA0000" opacity="1.000000" stroke="none" 
	d="
M591.192871,245.350555 
	C624.989075,245.016357 659.062927,245.014618 693.610840,245.015533 
	C692.866333,245.343994 691.648010,245.952637 690.428833,245.954391 
	C658.098572,246.000977 625.768188,245.986725 593.437866,245.967285 
	C592.781982,245.966888 592.126282,245.781876 591.192871,245.350555 
z"/>
<path fill="#AA0000" opacity="1.000000" stroke="none" 
	d="
M384.192688,245.350616 
	C414.179138,245.012894 444.443298,244.993698 474.707336,245.028061 
	C477.184021,245.030869 479.660339,245.398346 482.521851,245.720047 
	C450.094727,245.790146 417.282532,245.736588 384.192688,245.350616 
z"/>
<path fill="#000000" opacity="1.000000" stroke="none" 
	d="
M674.833130,108.154350 
	C669.640686,106.105186 664.580994,103.513443 659.208679,102.199783 
	C655.694214,101.340401 653.355835,104.987076 655.191223,108.238762 
	C657.525696,112.374603 660.654419,116.060135 663.411316,119.960609 
	C664.453796,121.435593 665.414124,122.968674 665.970398,124.935509 
	C656.093262,121.605057 647.497314,114.674179 635.298889,117.693199 
	C641.817261,130.171112 653.362183,138.586716 660.912659,151.066513 
	C658.520752,150.725052 656.846497,150.422836 655.158936,150.260132 
	C652.717041,150.024734 650.265503,149.890320 647.818054,149.712830 
	C648.315552,152.437042 648.061462,155.645798 649.448242,157.796692 
	C654.034790,164.910828 659.213562,171.643204 664.014771,178.845795 
	C663.864563,179.169495 663.904175,179.119690 663.904175,179.119690 
	C659.672241,176.815491 655.161377,174.900620 651.274170,172.115387 
	C645.512695,167.987259 640.115479,163.333435 634.711792,158.728989 
	C630.773682,155.373352 626.992004,151.821686 623.287354,148.206985 
	C615.636475,140.741776 607.015381,133.961014 600.762939,125.451523 
	C593.086060,115.003311 583.342773,105.867111 578.888611,93.054108 
	C576.691956,86.735039 572.536926,81.123886 569.894470,74.925346 
	C567.025391,68.195518 565.223572,61.134422 569.149048,52.733067 
	C574.253235,54.431454 579.609741,56.236385 584.981018,57.995792 
	C593.186279,60.683475 601.657532,62.744102 609.558716,66.135818 
	C625.028381,72.776390 640.186890,80.128746 653.896545,90.112686 
	C659.524048,94.210899 665.431152,97.929909 670.989868,102.115166 
	C672.727844,103.423691 673.742249,105.693283 674.949402,107.854935 
	C674.810974,108.186935 674.833130,108.154350 674.833130,108.154350 
z"/>
<path fill="#000000" opacity="1.000000" stroke="none" 
	d="
M991.927856,110.052361 
	C1000.084778,111.954674 1008.002197,113.422432 1015.868591,115.126106 
	C1017.256470,115.426689 1018.430969,116.712830 1019.895813,117.669052 
	C1012.536926,122.316368 1005.123291,123.463463 997.028137,123.113083 
	C992.107544,122.900116 987.110413,125.454834 982.125244,125.546448 
	C967.696899,125.811584 953.234741,125.897537 938.831726,125.159225 
	C931.960266,124.806976 925.070374,122.843300 918.404419,120.878197 
	C905.805969,117.164291 893.998291,112.210342 887.860840,99.074120 
	C886.669495,96.524086 884.451782,93.963562 880.444336,93.792732 
	C877.505371,93.667450 874.663269,91.671402 871.741821,90.608788 
	C869.351379,89.739326 866.907410,89.017036 864.492737,87.390671 
	C870.159607,88.138039 875.827087,88.881439 881.492432,89.639885 
	C881.978088,89.704895 882.444153,89.929054 882.929688,89.979591 
	C889.513062,90.664917 896.138550,91.071999 902.670715,92.083611 
	C908.323792,92.959076 913.851990,94.612122 919.471863,95.740059 
	C923.771057,96.602943 928.114990,97.271248 932.460876,97.866470 
	C938.262573,98.661072 944.133240,99.041031 949.882812,100.097046 
	C953.855835,100.826759 957.642029,102.519859 961.569885,103.563286 
	C966.311218,104.822830 971.089050,105.975365 975.897217,106.945061 
	C981.127502,107.999863 986.410828,108.791656 991.927856,110.052361 
z"/>
<path fill="#000000" opacity="1.000000" stroke="none" 
	d="
M879.183777,280.317200 
	C896.836853,265.348724 916.393005,254.924438 939.240845,251.130630 
	C935.918213,252.645691 932.533508,254.039185 929.284363,255.698212 
	C918.800964,261.051178 908.463318,266.699646 897.875183,271.833557 
	C892.393127,274.491638 888.617676,278.568787 886.082031,283.783997 
	C884.570801,286.892181 883.194031,290.438721 883.146362,293.807831 
	C883.047363,300.796448 883.874756,307.798187 884.349792,315.240784 
	C882.151123,309.818329 879.581909,304.773529 878.075439,299.429138 
	C876.320374,293.202759 873.074890,286.588684 879.183777,280.317200 
z"/>
<path fill="#000000" opacity="1.000000" stroke="none" 
	d="
M674.798523,108.203522 
	C675.800415,108.284515 676.814697,108.348930 677.829041,108.413345 
	C677.776672,108.690201 677.724365,108.967056 677.671997,109.243904 
	C676.869751,108.999001 676.067505,108.754097 675.049194,108.331772 
	C674.833130,108.154350 674.810974,108.186935 674.798523,108.203522 
z"/>
<path fill="#000000" opacity="1.000000" stroke="none" 
	d="
M663.845703,179.195084 
	C664.379639,179.288849 664.932495,179.357010 665.485352,179.425171 
	C665.343506,179.795273 665.201721,180.165359 665.059937,180.535461 
	C664.761414,180.236038 664.462769,179.936615 664.034180,179.378448 
	C663.904175,179.119690 663.864563,179.169495 663.845703,179.195084 
z"/>
<path fill="#000000" opacity="1.000000" stroke="none" 
	d="
M667.461426,127.085075 
	C667.242615,126.911438 667.204773,126.673660 667.166931,126.435883 
	C667.325439,126.630898 667.483887,126.825920 667.461426,127.085075 
z"/>
</svg>